<?xml version="1.0" encoding="UTF-8" standalone="no"?>
<svg
   viewBox="32.62 118.20201 146.55 78.325742"
   id="svg1"
   version="1.1"
   width="146.55"
   height="78.325745"
   xmlns="http://www.w3.org/2000/svg"
   xmlns:svg="http://www.w3.org/2000/svg">
  <defs
     id="defs1" />
  <g
     id="layer1">
    <g
       id="g7">
      <path
         id="rect1"
         style="fill:#ef4056;fill-opacity:1;stroke:#f5f947;stroke-width:0;stroke-dasharray:none"
         d="m 40.969609,118.31138 c -1.038696,0.0318 -2.078131,0.0604 -3.117187,0.0664 -0.07426,4.3e-4 -0.195615,-0.002 -0.283203,-0.002 -2.79066,0.31848 -4.953125,2.64868 -4.953125,5.52734 v 66.65235 c 0,3.09732 2.494468,5.59179 5.591797,5.59179 H 173.57898 c 3.09734,0 5.58985,-2.49447 5.58985,-5.59179 v -66.65235 c 0,-3.09733 -2.49251,-5.5918 -5.58985,-5.5918 H 96.15125 c -0.08913,0.006 -0.178462,0.008 -0.267578,0.0137 -1.093513,0.0637 -2.184998,0.0683 -3.279297,0.008 -0.129659,-0.005 -0.259032,-0.0159 -0.388672,-0.0215 z" />
      <path
         id="path1"
         style="fill:#ef4056;fill-opacity:1;stroke:#f5f947;stroke-width:0;stroke-dasharray:none"
         d="m 46.110234,118.17076 c -0.404312,0.0112 -0.808571,0.024 -1.21289,0.0352 -2.332214,0.0347 -4.663444,0.15686 -6.996094,0.17187 l 34.857422,48.30274 70.347658,-0.0781 32.01367,-48.22852 -77.789062,-0.12304 c -0.482455,0.0243 -0.965252,0.0417 -1.447266,0.0742 -1.093513,0.0637 -2.184998,0.0683 -3.279297,0.008 -0.553819,-0.022 -1.106682,-0.0626 -1.660156,-0.0918 l -29.828125,-0.0469 c -0.155572,0.005 -0.311233,0.01 -0.466797,0.0156 -1.18417,0.0349 -2.368095,0.0382 -3.552735,0.0332 v -0.002 c -0.148909,-6.6e-4 -0.273659,-0.0234 -0.390625,-0.0527 z" />
      <path
         id="path2"
         d="m 174.94354,120.75089 c -10.0274,-1.44772 -22.27824,31.96778 -30.505,49.98787 -1.52516,2.16603 -3.05033,3.67809 -4.57549,3.75887 l -67.287848,0.0229 c -2.621268,0.30278 -3.715882,-1.55481 -5.137473,-2.9497 C 50.106179,139.2594 48.452146,119.42873 37.38432,120.40814 Z"
         style="display:none;fill:#ffffff;fill-opacity:1;stroke:#f5f947;stroke-width:0;stroke-dasharray:none" />
    </g>
    <g
       style="display:none"
       id="g8">
      <path
         d="m 170.60687,118.56288 a 64.555191,62.70142 0 0 1 -64.49295,57.6451 64.555191,62.70142 0 0 1 -64.220162,-57.93169"
         id="path4"
         style="fill:#ffffff;fill-opacity:1;stroke:#9f2c2c;stroke-width:0;paint-order:fill markers stroke" />
      <path
         d="m 170.60687,118.56288 a 64.555191,62.70142 0 0 1 -64.49295,57.6451 64.555191,62.70142 0 0 1 -64.220162,-57.93169"
         id="path5"
         style="fill:#ffffff;fill-opacity:1;stroke:#9f2c2c;stroke-width:0;paint-order:fill markers stroke" />
      <path
         d="m 162.3098,118.54403 a 55.498577,53.306984 0 0 1 -55.44507,49.00825 55.498577,53.306984 0 0 1 -55.21055,-49.2519"
         id="path6"
         style="fill:#ef4056;fill-opacity:1;stroke:#9f2c2c;stroke-width:0;paint-order:fill markers stroke" />
    </g>
    <path
       id="rect8"
       style="fill:#ffffff;fill-opacity:1;stroke:#ffffff;stroke-width:0;stroke-dasharray:none;stroke-opacity:1;paint-order:fill markers stroke"
       d="m 69.817266,117.87779 c -0.343151,0.0108 -0.686381,0.0185 -1.029297,0.0371 -2.71155,0.13093 -5.425784,0.19752 -8.138672,0.29492 -1.184165,0.0349 -2.3681,0.0382 -3.552735,0.0332 v -0.002 c -0.36587,-0.002 -0.600163,-0.11629 -0.769531,-0.26172 h -0.564453 -1.570312 -1.582032 c -2.570852,0.0787 -5.141775,0.15559 -7.71289,0.22657 -1.485372,0.0221 -2.969897,0.0784 -4.455078,0.12109 -0.188805,0.51526 -0.31836,1.06957 -0.31836,1.67383 v 45.25781 c 0,2.32471 1.53762,4.19531 3.447266,4.19531 H 167.51844 c 1.90967,0 3.44726,-1.8706 3.44726,-4.19531 v -45.25781 c 0,-0.66233 -0.13854,-1.27645 -0.36328,-1.83008 h -4.63867 c -2.95716,0.004 -5.91286,0.0178 -8.86914,-0.0606 -0.85281,-0.0222 -1.70453,-0.0615 -2.55664,-0.0937 -0.17364,0.16708 -0.46463,0.28157 -0.875,0.26758 -1.00719,-0.0343 -2.01362,-0.077 -3.01758,-0.16797 -0.70116,-0.0592 -1.40175,-0.0669 -2.10547,-0.0547 h -2.20312 -2.33985 -2.46484 -3.06641 -3.98437 -4.05274 -2.67382 c -0.25474,0 -0.4618,-0.0479 -0.62305,-0.125 -0.69409,0.0135 -1.38843,0.0161 -2.08203,0.041 -1.18274,0.0471 -2.36543,0.10389 -3.54883,0.13281 -0.33786,0.0354 -0.67605,0.0687 -1.01367,0.10742 -0.2889,0.0331 -0.51394,-0.003 -0.68164,-0.0801 -1.27545,-1e-5 -2.5507,-1e-5 -3.82617,0 -1.35668,0 -2.71364,-1e-5 -4.07032,0 -1.32418,2e-5 -2.64854,-1.4e-4 -3.97265,0 -1.18293,0 -2.3659,7.5e-4 -3.54883,0.002 -1.02352,0.001 -2.04686,0.002 -3.07031,0.008 -0.8912,0.006 -1.782948,0.011 -2.673832,0.0371 -0.920672,0.031 -1.840642,0.0786 -2.759766,0.14063 -1.093508,0.0637 -2.185003,0.0673 -3.279297,0.008 -1.34869,-0.0535 -2.696372,-0.13038 -4.042969,-0.22266 -1.533429,-0.0156 -3.067116,-0.0367 -4.599609,-0.0898 -1.504873,-0.0568 -3.009155,-0.15278 -4.515625,-0.14258 h -3.855469 z" />
    <path
       id="rect10"
       style="fill:#ef4056;fill-opacity:1;stroke:#ffffff;stroke-width:0;stroke-dasharray:none;stroke-opacity:1;paint-order:fill markers stroke"
       d="m 71.629766,115.10435 c 0.0021,0.013 0.006,0.0261 0.0078,0.0391 0.623428,-0.002 1.247698,-0.004 1.871094,-0.01 0.162792,-0.009 0.325489,-0.0198 0.488281,-0.0293 z m -19.314454,0.0606 c -0.167231,0.0393 -0.330606,0.0942 -0.488281,0.16211 0.03098,5.8e-4 0.06369,4.5e-4 0.09375,0.002 0.186167,-0.0775 0.276634,-0.11715 0.394531,-0.16406 z m 108.513668,0.44922 c -0.13351,0.008 -0.26691,0.0177 -0.40039,0.0254 0.15319,0.008 0.31995,0.0138 0.47266,0.0215 -0.0231,-0.0176 -0.0487,-0.03 -0.0723,-0.0469 z m -91.011714,2.26367 c -0.343151,0.0108 -0.686381,0.0185 -1.029297,0.0371 -2.71155,0.13093 -5.425784,0.19752 -8.138672,0.29492 -1.184165,0.0349 -2.3681,0.0382 -3.552735,0.0332 v -0.002 c -0.36587,-0.002 -0.600163,-0.11629 -0.769531,-0.26172 h -0.564453 -1.570312 -1.574219 c -0.905611,0.0262 -1.811205,0.0539 -2.716797,0.0801 -0.03482,0.20586 -0.06055,0.41613 -0.06055,0.63477 v 38.70898 c 0,1.98836 1.321717,3.58789 2.962891,3.58789 H 159.32508 c 1.64118,0 2.96289,-1.59953 2.96289,-3.58789 V 118.6942 c 0,-0.1811 -0.0302,-0.35063 -0.0527,-0.52344 -1.71368,-0.003 -3.42687,-0.0151 -5.14062,-0.0606 -0.85281,-0.0222 -1.70453,-0.0615 -2.55664,-0.0937 -0.17364,0.16708 -0.46463,0.28157 -0.875,0.26758 -1.00719,-0.0343 -2.01362,-0.077 -3.01758,-0.16797 -0.70116,-0.0592 -1.40175,-0.0669 -2.10547,-0.0547 h -2.20312 -2.33985 -2.46484 -3.06641 -3.98437 -4.05274 -2.67382 c -0.25474,0 -0.4618,-0.0479 -0.62305,-0.125 -0.69409,0.0135 -1.38843,0.0161 -2.08203,0.041 -1.18665,0.0473 -2.37324,0.10603 -3.56055,0.13477 -0.33392,0.0351 -0.66826,0.0672 -1.00195,0.10546 -0.2889,0.0331 -0.51394,-0.003 -0.68164,-0.0801 -1.27545,-1e-5 -2.5507,-1e-5 -3.82617,0 -1.35668,0 -2.71364,-1e-5 -4.07032,0 -1.32418,2e-5 -2.64854,-1.4e-4 -3.97265,0 -1.18293,0 -2.3659,7.5e-4 -3.54883,0.002 -1.02352,0.001 -2.04686,0.002 -3.07031,0.008 -0.8912,0.006 -1.782948,0.011 -2.673832,0.0371 -0.920672,0.031 -1.840642,0.0786 -2.759766,0.14063 -1.093508,0.0637 -2.185003,0.0673 -3.279297,0.008 -1.34869,-0.0535 -2.696372,-0.13038 -4.042969,-0.22266 -1.533429,-0.0156 -3.067116,-0.0367 -4.599609,-0.0898 -1.504873,-0.0568 -3.009155,-0.15278 -4.515625,-0.14258 h -3.855469 z" />
    <g
       transform="translate(0.10759372,-9.5183382)"
       id="g6">
      <ellipse
         ry="3.4350109"
         rx="3.5468969"
         cy="184.86566"
         cx="114.2708"
         id="path3"
         style="fill:#272727;fill-opacity:1;stroke:#f5f947;stroke-width:0;stroke-dasharray:none" />
      <ellipse
         ry="3.4350109"
         rx="3.5468969"
         cy="184.7072"
         cx="96.439568"
         id="ellipse3"
         style="fill:#272727;fill-opacity:1;stroke:#f5f947;stroke-width:0;stroke-dasharray:none" />
    </g>
  </g>
</svg>
