<svg width="32" height="32" viewBox="0 0 32 32" fill="none" xmlns="http://www.w3.org/2000/svg">
<path d="M8.9097 12.7643C9.14547 11.892 9.93683 11.2861 10.8404 11.2861H22.3689C23.2716 11.2861 24.0623 11.8907 24.299 12.7618L27.9192 26.0871L12.5 26.0871L9.99997 26.0871H5.30865L8.9097 12.7643Z" fill="url(#paint0_linear_14617_208921)"/>
<path d="M8.9097 12.7643C9.14547 11.892 9.93683 11.2861 10.8404 11.2861H22.3689C23.2716 11.2861 24.0623 11.8907 24.299 12.7618L27.9192 26.0871L12.5 26.0871L9.99997 26.0871H5.30865L8.9097 12.7643Z" fill="url(#paint1_linear_14617_208921)"/>
<path d="M13.0842 18.4798H26.9199C27.3658 18.4798 27.7578 18.775 27.881 19.2036L30.0417 26.7239C30.2254 27.363 29.7456 28 29.0806 28H10.3488L13.0842 18.4798Z" fill="url(#paint2_linear_14617_208921)"/>
<path d="M4.26372 19.9275L2.67762 25.4477C2.31034 26.726 3.26984 28 4.59984 28H11.9741L9.66325 18.4798H6.18595C5.29409 18.4798 4.51001 19.0703 4.26372 19.9275Z" fill="url(#paint3_linear_14617_208921)"/>
<path d="M4.26372 19.9275L2.67762 25.4477C2.31034 26.726 3.26984 28 4.59984 28H11.9741L9.66325 18.4798H6.18595C5.29409 18.4798 4.51001 19.0703 4.26372 19.9275Z" fill="#FCDE1C"/>
<path d="M8.36031 15.0698C8.91811 12.8457 10.9172 11.2861 13.2101 11.2861H22.2935C23.231 11.2861 24.0427 11.9374 24.246 12.8526L25.5 18.5H7.5L8.36031 15.0698Z" fill="url(#paint4_linear_14617_208921)"/>
<path d="M13.0842 18.4798H16.2469C16.6928 18.4798 17.0849 18.775 17.208 19.2036L19.3688 26.7239C19.5524 27.363 19.0727 28 18.4077 28H10.3488L13.0842 18.4798Z" fill="url(#paint5_linear_14617_208921)"/>
<path d="M13.0842 18.4798H16.2469C16.6928 18.4798 17.0849 18.775 17.208 19.2036L19.3688 26.7239C19.5524 27.363 19.0727 28 18.4077 28H10.3488L13.0842 18.4798Z" fill="#FCDE1C"/>
<path d="M8.5183 14.4399C8.98323 12.5861 10.6495 11.2861 12.5607 11.2861C13.3421 11.2861 14.0186 11.8289 14.188 12.5918L15.5 18.5H7.5L8.5183 14.4399Z" fill="url(#paint6_linear_14617_208921)"/>
<path d="M8.5183 14.4399C8.98323 12.5861 10.6495 11.2861 12.5607 11.2861C13.3421 11.2861 14.0186 11.8289 14.188 12.5918L15.5 18.5H7.5L8.5183 14.4399Z" fill="#FCDE1C"/>
<path fill-rule="evenodd" clip-rule="evenodd" d="M8.31853 18.2L10.2385 12.5861H12.9924L14.2492 18.2H8.31853ZM15.5814 18.2L14.3246 12.5861H22.9462L24.7245 18.2H15.5814ZM9.0779 11.9625C9.21627 11.558 9.59653 11.2861 10.0241 11.2861H23.1659C23.6018 11.2861 23.9875 11.5686 24.1192 11.9842L26.0876 18.198C26.1174 18.2924 26.1326 18.387 26.1347 18.4798H26.9198C27.3657 18.4798 27.7578 18.775 27.8809 19.2036L30.0417 26.7238C30.2253 27.363 29.7456 28 29.0806 28H11.6765C11.4976 28 11.3321 27.9539 11.1893 27.874C11.0463 27.9539 10.8808 28 10.7023 28H3.27204C2.60704 28 2.12728 27.363 2.31092 26.7238L4.47168 19.2036C4.59482 18.775 4.98687 18.4798 5.43279 18.4798H6.8983C6.90051 18.3798 6.91799 18.2778 6.95267 18.1764L9.0779 11.9625ZM9.91087 19.5L11.2298 24.9335L12.791 19.5H9.91087ZM3.67037 26.7H10.3208L8.64102 19.7798H5.65873L3.67037 26.7ZM14.0632 19.7798L12.0748 26.7H18.3148L16.5298 19.7798H14.0632ZM17.8724 19.7798L19.6574 26.7H28.6822L26.6939 19.7798H17.8724Z" fill="url(#paint7_linear_14617_208921)"/>
<path fill-rule="evenodd" clip-rule="evenodd" d="M17.2439 3.47656C17.2439 2.92428 16.7962 2.47656 16.2439 2.47656C15.6916 2.47656 15.2439 2.92428 15.2439 3.47656V8.59578C15.2439 9.14806 15.6916 9.59578 16.2439 9.59578C16.7962 9.59578 17.2439 9.14806 17.2439 8.59578V3.47656ZM10.1645 3.79824C10.6428 3.5221 11.2544 3.68597 11.5306 4.16427L14.0219 8.4793C14.298 8.95759 14.1341 9.56918 13.6558 9.84533C13.1775 10.1215 12.566 9.95759 12.2898 9.4793L9.79852 5.16427C9.52238 4.68597 9.68626 4.07438 10.1645 3.79824ZM22.188 3.79824C21.7097 3.5221 21.0981 3.68597 20.822 4.16427L18.3307 8.4793C18.0546 8.95759 18.2184 9.56918 18.6967 9.84533C19.175 10.1215 19.7866 9.95759 20.0628 9.4793L22.554 5.16427C22.8302 4.68597 22.6663 4.07438 22.188 3.79824Z" fill="url(#paint8_linear_14617_208921)"/>
<defs>
<linearGradient id="paint0_linear_14617_208921" x1="8.25782" y1="11.2858" x2="20.6243" y2="29.9441" gradientUnits="userSpaceOnUse">
<stop stop-color="#FCCB1C"/>
<stop offset="0.205" stop-color="#FCAE1C"/>
<stop offset="0.5" stop-color="#FCE61C"/>
<stop offset="0.765" stop-color="#FCAE1C"/>
<stop offset="1" stop-color="#FCCB1C"/>
</linearGradient>
<linearGradient id="paint1_linear_14617_208921" x1="9.5" y1="20" x2="13.2702" y2="22.816" gradientUnits="userSpaceOnUse">
<stop stop-color="#FCB01C"/>
<stop offset="1" stop-color="#FCDF1C"/>
</linearGradient>
<linearGradient id="paint2_linear_14617_208921" x1="17" y1="23" x2="26.2124" y2="27.1653" gradientUnits="userSpaceOnUse">
<stop stop-color="#FCB01C"/>
<stop offset="1" stop-color="#FCDF1C"/>
</linearGradient>
<linearGradient id="paint3_linear_14617_208921" x1="3.51991" y1="25.5" x2="10.3833" y2="26.5888" gradientUnits="userSpaceOnUse">
<stop stop-color="#FCDF1C"/>
<stop offset="1" stop-color="#FCB01C"/>
</linearGradient>
<linearGradient id="paint4_linear_14617_208921" x1="14" y1="15" x2="21.8151" y2="18.5403" gradientUnits="userSpaceOnUse">
<stop stop-color="#FCB01C"/>
<stop offset="1" stop-color="#FCDF1C"/>
</linearGradient>
<linearGradient id="paint5_linear_14617_208921" x1="11.8234" y1="25.5" x2="18.2663" y2="26.4565" gradientUnits="userSpaceOnUse">
<stop stop-color="#FCDF1C"/>
<stop offset="1" stop-color="#FCB01C"/>
</linearGradient>
<linearGradient id="paint6_linear_14617_208921" x1="8.75676" y1="16.6056" x2="14.2167" y2="17.5174" gradientUnits="userSpaceOnUse">
<stop stop-color="#FCDF1C"/>
<stop offset="1" stop-color="#FCB01C"/>
</linearGradient>
<linearGradient id="paint7_linear_14617_208921" x1="5.49997" y1="1" x2="23" y2="28" gradientUnits="userSpaceOnUse">
<stop stop-color="#FFCB05"/>
<stop offset="0.933404" stop-color="#E1980B"/>
</linearGradient>
<linearGradient id="paint8_linear_14617_208921" x1="12.8847" y1="3.01465" x2="17.4939" y2="10.583" gradientUnits="userSpaceOnUse">
<stop stop-color="#CE975E"/>
<stop offset="1" stop-color="#E1980B"/>
</linearGradient>
</defs>
</svg>
