<svg xmlns="http://www.w3.org/2000/svg" id="Layer_1" data-name="Layer 1" viewBox="0 0 367.28 173.89"><defs><clipPath id="clippath"><path d="M0 0h367.28v173.89H0z" style="fill:none;stroke-width:0"/></clipPath><style>.cls-2{fill:#ed1944;stroke-width:0}</style></defs><g style="clip-path:url(#clippath)"><path d="M205.29 74.58h-3.75a1.232 1.232 0 0 0-1.23 1.23V98.2a1.232 1.232 0 0 0 1.23 1.23h3.75a1.232 1.232 0 0 0 1.23-1.23V75.81a1.232 1.232 0 0 0-1.23-1.23m0-9.36h-3.75a1.232 1.232 0 0 0-1.23 1.23v3.78a1.232 1.232 0 0 0 1.23 1.23h3.75a1.232 1.232 0 0 0 1.23-1.23v-3.78a1.232 1.232 0 0 0-1.23-1.23m-9.37 0h-3.75a1.232 1.232 0 0 0-1.23 1.23v8.12h-9.34c-2.57 0-4.9 1.04-6.58 2.73a9.29 9.29 0 0 0-2.73 6.58v6.35c0 2.57 1.04 4.9 2.73 6.58a9.29 9.29 0 0 0 6.58 2.73h5.92c.1 0 .2-.02.3-.06.09-.04.18-.1.25-.17l1.43-1.43 1.43-1.43v1.86a1.232 1.232 0 0 0 1.23 1.23h3.75c.34 0 .65-.14.87-.38.22-.24.36-.58.36-.98V66.32c0-.28-.14-.56-.36-.76-.22-.21-.53-.35-.87-.35m-4.99 21.85v6.27h-10.57c-.51 0-.98-.21-1.32-.54-.34-.34-.54-.8-.54-1.31v-8.83a1.842 1.842 0 0 1 1.86-1.85h10.57v6.27Zm114.09-21.84h-3.79c-.35 0-.66.14-.88.37-.23.23-.37.54-.37.88v31.78c0 .35.14.66.37.88.23.23.54.37.88.37h3.79c.35 0 .66-.14.88-.37.23-.23.37-.54.37-.88V66.47c0-.34-.14-.66-.37-.88a1.24 1.24 0 0 0-.88-.37m-33.39 11.49c.39-.39.45-.92.27-1.36-.18-.43-.6-.77-1.15-.77h-5.52c-.09 0-.18.02-.26.05-.08.03-.15.08-.21.14l-5.74 5.73-5.74 5.73V66.45a1.232 1.232 0 0 0-1.23-1.23h-3.75a1.232 1.232 0 0 0-1.23 1.23v31.81a1.232 1.232 0 0 0 1.23 1.23h3.75a1.232 1.232 0 0 0 1.23-1.23v-10.5l5.74 5.77 5.74 5.77c.06.06.13.11.21.14.08.03.17.05.26.05h5.52c.55 0 .97-.33 1.15-.77.18-.43.12-.96-.27-1.36l-5.15-5.19-5.15-5.19 5.15-5.15 5.15-5.15Z" class="cls-2"/><path d="M295.63 74.57H281.3c-2.57 0-4.9 1.04-6.59 2.73a9.271 9.271 0 0 0-2.73 6.59v6.23c0 2.57 1.04 4.9 2.73 6.59a9.289 9.289 0 0 0 6.59 2.73h5.93c.1 0 .2-.02.3-.06.09-.04.18-.1.25-.17l1.43-1.43 1.43-1.43v1.87a1.232 1.232 0 0 0 1.23 1.23h3.75a1.232 1.232 0 0 0 1.23-1.23V75.81a1.232 1.232 0 0 0-1.23-1.23m-4.99 12.43v6.22h-10.57c-.51 0-.98-.21-1.32-.54-.34-.34-.55-.8-.55-1.32v-8.71c0-.51.21-.98.55-1.31.34-.34.8-.55 1.32-.55h10.57v6.22Zm43.32-12.07c-.22-.22-.53-.36-.88-.36h-14.36c-2.58 0-4.91 1.04-6.6 2.73a9.295 9.295 0 0 0-2.73 6.6v6.25c0 2.58 1.04 4.91 2.73 6.6a9.295 9.295 0 0 0 6.6 2.73h5.94c.1 0 .2-.02.3-.06.09-.04.18-.1.25-.17l1.43-1.44 1.43-1.44v1.88a1.232 1.232 0 0 0 1.23 1.23h3.76c.34 0 .65-.14.88-.36.22-.22.36-.53.36-.87V75.8c0-.34-.14-.65-.36-.88m-5.86 12.11v6.23h-10.6c-.51 0-.98-.21-1.32-.55-.34-.34-.55-.8-.55-1.32v-8.73c0-.51.21-.98.55-1.32.34-.34.8-.55 1.32-.55h10.6v6.23Zm-85.38-12.45h-3.75a1.232 1.232 0 0 0-1.23 1.23V98.2a1.232 1.232 0 0 0 1.23 1.23h3.75a1.232 1.232 0 0 0 1.23-1.23V75.81a1.232 1.232 0 0 0-1.23-1.23m0-9.36h-3.75a1.232 1.232 0 0 0-1.23 1.23v3.78a1.232 1.232 0 0 0 1.23 1.23h3.75a1.232 1.232 0 0 0 1.23-1.23v-3.78a1.232 1.232 0 0 0-1.23-1.23m-9.34 9.35h-3.75a1.232 1.232 0 0 0-1.23 1.23v1.86l-1.43-1.43-1.43-1.43a.852.852 0 0 0-.25-.17.73.73 0 0 0-.3-.06h-5.93c-2.57 0-4.9 1.04-6.58 2.73a9.248 9.248 0 0 0-2.73 6.58v6.3c0 2.57 1.04 4.9 2.73 6.58a9.29 9.29 0 0 0 6.58 2.73h9.31v1.21c0 .51-.21 1-.54 1.35-.34.35-.8.58-1.31.58h-9.36c-.33 0-.63.13-.84.35-.22.22-.35.51-.35.84v1.37c0 .18.04.35.1.51.07.16.17.31.29.44l1.16 1.17 1.17 1.17c.12.13.27.22.43.29.16.07.34.1.51.1h5.63c2.57 0 4.9-1.06 6.59-2.77a9.419 9.419 0 0 0 2.73-6.63V87.64l.03-11.83a1.232 1.232 0 0 0-1.23-1.23m-5 12.45v6.25h-10.56c-.51 0-.98-.21-1.31-.54-.34-.34-.54-.8-.54-1.31v-8.78c0-.51.21-.98.54-1.31.34-.34.8-.54 1.31-.54h10.56v6.25Zm-86.11-21.5c-.98-.98-2.62-.89-3.46.21-10.03 13.14-26.66 21.73-45.48 21.73-18.82 0-35.45-8.6-45.48-21.73-.84-1.1-2.48-1.19-3.46-.21L34.1 75.79c-1.4 1.4-1.53 3.64-.28 5.17 14.12 17.14 35.5 28.06 59.44 28.07s.04 0 .04 0h.04c23.94-.01 45.32-10.94 59.44-28.08 1.26-1.53 1.12-3.77-.28-5.17l-10.26-10.26Z" class="cls-2"/></g></svg>